<svg xmlns="http://www.w3.org/2000/svg" viewBox="0 0 20 20" shape-rendering="crispEdges"><rect width="20" height="20" rx="4" fill="#0E0E10" shape-rendering="auto"/><rect x="9.5" y="2" width="1" height="1" fill="#282828"/><rect x="8.5" y="3" width="1" height="1" fill="#282828"/><rect x="9.5" y="3" width="1" height="1" fill="#fefefe"/><rect x="10.5" y="3" width="1" height="1" fill="#282828"/><rect x="7.5" y="4" width="1" height="1" fill="#282828"/><rect x="8.5" y="4" width="1" height="1" fill="#787888"/><rect x="9.5" y="4" width="1" height="1" fill="#b9b9c9"/><rect x="10.5" y="4" width="1" height="1" fill="#fefefe"/><rect x="11.5" y="4" width="1" height="1" fill="#282828"/><rect x="6.5" y="5" width="1" height="1" fill="#282828"/><rect x="7.5" y="5" width="2" height="1" fill="#787888"/><rect x="9.5" y="5" width="1" height="1" fill="#282828"/><rect x="10.5" y="5" width="2" height="1" fill="#b9b9c9"/><rect x="12.5" y="5" width="1" height="1" fill="#282828"/><rect x="7.5" y="6" width="5" height="1" fill="#282828"/><rect x="8.5" y="7" width="1" height="1" fill="#282828"/><rect x="9.5" y="7" width="1" height="1" fill="#b9b9c9"/><rect x="10.5" y="7" width="1" height="1" fill="#282828"/><rect x="8.5" y="8" width="1" height="1" fill="#282828"/><rect x="9.5" y="8" width="1" height="1" fill="#787888"/><rect x="10.5" y="8" width="1" height="1" fill="#282828"/><rect x="8.5" y="9" width="1" height="1" fill="#282828"/><rect x="9.5" y="9" width="1" height="1" fill="#787888"/><rect x="10.5" y="9" width="1" height="1" fill="#282828"/><rect x="8.5" y="10" width="3" height="1" fill="#282828"/><rect x="8.5" y="11" width="1" height="1" fill="#282828"/><rect x="9.5" y="11" width="1" height="1" fill="#b9b9c9"/><rect x="10.5" y="11" width="1" height="1" fill="#282828"/><rect x="7.5" y="12" width="2" height="1" fill="#282828"/><rect x="9.5" y="12" width="1" height="1" fill="#787888"/><rect x="10.5" y="12" width="2" height="1" fill="#282828"/><rect x="7.5" y="13" width="1" height="1" fill="#282828"/><rect x="8.5" y="13" width="1" height="1" fill="#b02828"/><rect x="9.5" y="13" width="1" height="1" fill="#282828"/><rect x="10.5" y="13" width="1" height="1" fill="#b02828"/><rect x="11.5" y="13" width="1" height="1" fill="#282828"/><rect x="7.5" y="14" width="1" height="1" fill="#282828"/><rect x="8.5" y="14" width="1" height="1" fill="#b02828"/><rect x="9.5" y="14" width="2" height="1" fill="#de6e6e"/><rect x="11.5" y="14" width="1" height="1" fill="#282828"/><rect x="7.5" y="15" width="1" height="1" fill="#282828"/><rect x="8.5" y="15" width="2" height="1" fill="#b02828"/><rect x="10.5" y="15" width="1" height="1" fill="#de6e6e"/><rect x="11.5" y="15" width="1" height="1" fill="#282828"/><rect x="7.5" y="16" width="1" height="1" fill="#282828"/><rect x="8.5" y="16" width="2" height="1" fill="#b02828"/><rect x="10.5" y="16" width="1" height="1" fill="#de6e6e"/><rect x="11.5" y="16" width="1" height="1" fill="#282828"/><rect x="8.5" y="17" width="3" height="1" fill="#282828"/></svg>
